<svg width="1000" height="200" xmlns="http://www.w3.org/2000/svg" xmlns:xlink="http://www.w3.org/1999/xlink" viewBox="0 0 500 100"><mask id="crop"><path d="M0,0 h500 v72 q0,28 -28,28 h-472 z" fill="white"/></mask><defs><filter y="-5" height="52" id="blur" color-interpolation-filters="sRGB"><feDropShadow dx="0" dy="2" stdDeviation="12" flood-color="#148CC0" flood-opacity="0.5"/></filter></defs><g mask="url(#crop)" ><svg x="0" y="0" xmlns="http://www.w3.org/2000/svg" xmlns:xlink="http://www.w3.org/1999/xlink" viewBox="0 0 500 100">
  <defs>
    <path id="reuse-0" fill="url(#c)" d="M0 30.76 57.6 0l57.6 30.76v70.984l-57.6 31.943L0 101.744Z" />
    <path id="reuse-1" fill="url(#d)" d="M0 30.76 57.6 0l57.6 30.76v70.984l-57.6 31.943L0 101.744Z" />
    <path id="reuse-2" fill="url(#e)" d="M0 31.943 57.6 0v70.984L0 102.927Z" />
    <path id="reuse-3" fill="url(#f)" d="m0 0 57.6 39.041L0 70.984Z" />
    <path id="reuse-4" fill="url(#g)" d="M0 31.943-57.6 0v70.984L0 102.927Z" />
    <path id="reuse-5" fill="url(#g)" d="m0 0-57.6 39.041L0 70.984Z" />
    <path id="reuse-6" fill="url(#c)" d="M0 30.421 56.751 0 113.5 30.421v70.2l-56.749 31.592L0 100.622Z" />
    <path id="reuse-7" fill="url(#d)" d="M0 30.421 56.751 0 113.5 30.421v70.2l-56.749 31.592L0 100.622Z" />
    <path id="reuse-8" fill="url(#e)" d="M0 31.591 56.751 0v70.2L0 101.792Z" />
    <path id="reuse-9" fill="url(#f)" d="m0 0 56.751 38.611L0 70.2Z" />
    <path id="reuse-10" fill="url(#g)" d="M0 31.591-56.751 0v70.2L0 101.792Z" />
    <path id="reuse-11" fill="url(#g)" d="m0 0-56.751 38.611L0 70.2Z" />
  </defs>
  <defs>
    <linearGradient id="c" x1=".5" x2=".5" y2="1" gradientUnits="objectBoundingBox">
      <stop offset="0" stop-color="#fff" />
      <stop offset="1" stop-color="#f7fbff" />
    </linearGradient>
    <linearGradient id="d" x1=".5" x2=".5" y2="1" gradientUnits="objectBoundingBox">
      <stop offset="0" stop-color="#d0deea" />
      <stop offset="1" stop-color="#dae1e8" />
    </linearGradient>
    <linearGradient id="e" x1=".5" x2=".5" y2="1" gradientUnits="objectBoundingBox">
      <stop offset="0" stop-color="#bdc2c8" />
      <stop offset="1" stop-color="#dcedef" />
    </linearGradient>
    <linearGradient id="f" x1=".5" x2=".5" y2="1" gradientUnits="objectBoundingBox">
      <stop offset="0" stop-color="#adbbca" stop-opacity=".702" />
      <stop offset="1" stop-color="#e4e8e9" stop-opacity="0" />
    </linearGradient>
    <linearGradient id="g" x1=".5" x2=".5" y2="1" gradientUnits="objectBoundingBox">
      <stop offset="0" stop-color="#7692ae" />
      <stop offset="1" stop-color="#93b0ce" />
    </linearGradient>
    <radialGradient id="b" cx="-.061" cy="-.082" r="1.895" gradientUnits="objectBoundingBox">
      <stop offset="0" stop-color="#002c69" />
      <stop offset=".748" stop-color="#20569a" />
      <stop offset="1" stop-color="#28abd8" />
    </radialGradient>
    <clipPath id="a">
      <path d="M0 0h500v100H0z" />
    </clipPath>
  </defs>
  <g clip-path="url(#a)">
    <path fill="url(#b)" d="M0 0h502v150H0z" transform="translate(0 -3)" />
    <g opacity=".3" style="mix-blend-mode: color-burn; isolation: isolate">
      <g>
        <g>
          <use xlink:href="#reuse-0" transform="translate(115.645 -71.225)" />
          <g opacity=".237">
            <g>
              <use xlink:href="#reuse-1" transform="translate(115.645 -71.225)" />
              <use xlink:href="#reuse-2" transform="translate(173.246 -40.465)" />
              <use xlink:href="#reuse-2" transform="translate(173.246 -40.465)" />
              <use xlink:href="#reuse-3" transform="translate(173.246 -8.522)" />
              <use xlink:href="#reuse-4" transform="translate(173.246 -40.465)" />
              <use xlink:href="#reuse-5" transform="translate(173.246 -8.522)" />
            </g>
          </g>
        </g>
        <g>
          <use xlink:href="#reuse-0" transform="translate(170.686 -40.374)" />
          <g opacity=".237">
            <g>
              <use xlink:href="#reuse-1" transform="translate(170.686 -40.374)" />
              <use xlink:href="#reuse-2" transform="translate(228.287 -9.614)" />
              <use xlink:href="#reuse-2" transform="translate(228.287 -9.614)" />
              <use xlink:href="#reuse-3" transform="translate(228.287 22.329)" />
              <use xlink:href="#reuse-4" transform="translate(228.287 -9.614)" />
              <use xlink:href="#reuse-5" transform="translate(228.287 22.329)" />
            </g>
          </g>
        </g>
        <g>
          <use xlink:href="#reuse-0" transform="translate(228.287 -8.517)" />
          <g opacity=".237">
            <g>
              <use xlink:href="#reuse-1" transform="translate(228.287 -8.517)" />
              <use xlink:href="#reuse-2" transform="translate(285.888 22.243)" />
              <use xlink:href="#reuse-2" transform="translate(285.888 22.243)" />
              <use xlink:href="#reuse-3" transform="translate(285.888 54.186)" />
              <use xlink:href="#reuse-4" transform="translate(285.888 22.243)" />
              <use xlink:href="#reuse-5" transform="translate(285.888 54.186)" />
            </g>
          </g>
        </g>
        <g>
          <use xlink:href="#reuse-0" transform="translate(170.686 93.313)" />
          <g opacity=".237">
            <g>
              <use xlink:href="#reuse-1" transform="translate(170.686 93.313)" />
              <use xlink:href="#reuse-2" transform="translate(228.287 124.073)" />
              <use xlink:href="#reuse-2" transform="translate(228.287 124.073)" />
              <use xlink:href="#reuse-3" transform="translate(228.287 156.016)" />
              <use xlink:href="#reuse-4" transform="translate(228.287 124.073)" />
              <use xlink:href="#reuse-5" transform="translate(228.287 156.016)" />
            </g>
          </g>
        </g>
        <g>
          <use xlink:href="#reuse-0" transform="translate(0 -.822)" />
          <g opacity=".237">
            <g>
              <use xlink:href="#reuse-1" transform="translate(0 -.822)" />
              <use xlink:href="#reuse-2" transform="translate(57.601 29.938)" />
              <use xlink:href="#reuse-2" transform="translate(57.601 29.938)" />
              <use xlink:href="#reuse-3" transform="translate(57.601 61.881)" />
              <use xlink:href="#reuse-4" transform="translate(57.601 29.938)" />
              <use xlink:href="#reuse-5" transform="translate(57.601 61.881)" />
            </g>
          </g>
        </g>
      </g>
      <g>
        <use xlink:href="#reuse-6" transform="translate(341.499 -9.592)" />
        <g opacity=".237">
          <g>
            <use xlink:href="#reuse-7" transform="translate(341.499 -9.592)" />
            <use xlink:href="#reuse-8" transform="translate(398.25 20.829)" />
            <use xlink:href="#reuse-8" transform="translate(398.25 20.829)" />
            <use xlink:href="#reuse-9" transform="translate(398.25 52.419)" />
            <use xlink:href="#reuse-10" transform="translate(398.25 20.829)" />
            <use xlink:href="#reuse-11" transform="translate(398.25 52.419)" />
          </g>
        </g>
      </g>
      <g>
        <use xlink:href="#reuse-6" transform="translate(284.748 -109)" />
        <g opacity=".237">
          <g>
            <use xlink:href="#reuse-7" transform="translate(284.748 -109)" />
            <use xlink:href="#reuse-8" transform="translate(341.499 -78.579)" />
            <use xlink:href="#reuse-8" transform="translate(341.499 -78.579)" />
            <use xlink:href="#reuse-9" transform="translate(341.499 -46.989)" />
            <use xlink:href="#reuse-10" transform="translate(341.499 -78.579)" />
            <use xlink:href="#reuse-11" transform="translate(341.499 -46.989)" />
          </g>
        </g>
      </g>
    </g>
  </g>
</svg><svg width="182.53" height="41.12" x="48.5" y="29.44" xmlns="http://www.w3.org/2000/svg" viewBox="0 0 192 38.575">
  <defs>
    <linearGradient id="logo-a" x1="-.061" x2=".914" y1="2.499" y2="1.52" gradientUnits="objectBoundingBox">
      <stop offset=".1" stop-color="#76b3e1" />
      <stop offset=".3" stop-color="#dcf2fd" />
      <stop offset="1" stop-color="#76b3e1" />
    </linearGradient>
    <linearGradient id="logo-b" x1=".571" x2=".381" y1="1.757" y2=".412" gradientUnits="objectBoundingBox">
      <stop offset="0" stop-color="#76b3e1" />
      <stop offset=".5" stop-color="#4377bb" />
      <stop offset="1" stop-color="#1f3b77" />
    </linearGradient>
    <linearGradient id="logo-c" x1=".107" x2="1.045" y1=".443" y2="-.683" gradientUnits="objectBoundingBox">
      <stop offset="0" stop-color="#315aa9" />
      <stop offset=".5" stop-color="#518ac8" />
      <stop offset="1" stop-color="#315aa9" />
    </linearGradient>
    <linearGradient id="logo-d" x1=".621" x2=".178" y1="-.213" y2="-3.668" gradientUnits="objectBoundingBox">
      <stop offset="0" stop-color="#4377bb" />
      <stop offset=".5" stop-color="#1a336b" />
      <stop offset="1" stop-color="#1a336b" />
    </linearGradient>
  </defs>
  <g>
    <path fill="#76b3e1" d="M41.354 8.299S27.646-2.052 17.009.366l-.934.258a6.785 6.785 0 0 0-3.615 2.538 6.142 6.142 0 0 0-.39.648l-3.928 6.676 6.785 1.324a12.087 12.087 0 0 0 9.675 1.9l12.087 2.362Z" />
    <path fill="url(#logo-a)" d="M48.572 8.543S34.864-1.808 24.227.61l-.934.258a6.785 6.785 0 0 0-3.615 2.538 6.142 6.142 0 0 0-.39.648L15.36 10.73l6.785 1.324a12.087 12.087 0 0 0 9.675 1.9l12.087 2.362Z" opacity=".3" style="isolation:isolate" transform="translate(-7.218 -.244)" />
    <path fill="#518ac8" d="m12.339 8.167-.939.264c-4.34 1.4-5.824 5.461-3.329 9.021a11.6 11.6 0 0 0 12.383 3.906l16.219-5.28S22.992 5.75 12.339 8.167Z" />
    <path fill="url(#logo-b)" d="m18.506 14.809-.939.264c-4.34 1.4-5.824 5.461-3.329 9.021A11.6 11.6 0 0 0 26.621 28l16.219-5.28s-13.681-10.328-24.334-7.911Z" opacity=".3" style="isolation:isolate" transform="translate(-6.167 -6.642)" />
    <path fill="url(#logo-c)" d="M34.246 32.8a11.6 11.6 0 0 0-12.406-3.928l-16.2 5.252L.54 43.2l29.025 4.945 5.2-9.258a5.5 5.5 0 0 0-.522-6.087Z" transform="translate(-.54 -12.928)" />
    <path fill="url(#logo-d)" d="M29.148 49.331A11.615 11.615 0 0 0 16.77 45.4L.54 50.655s13.735 10.351 24.344 7.933l.934-.258c4.346-1.379 5.829-5.439 3.329-9Z" transform="translate(-.54 -20.379)" />
    <path fill="#fff" d="M59.979 24.589a6.593 6.593 0 0 0 4.45 1.868c1.868 0 3.406-1.1 3.406-2.967 0-4.285-8.516-3.242-8.516-8.516 0-2.472 2.2-4.56 5.329-4.56a6.593 6.593 0 0 1 4.56 1.648l-.83 1.428a5.7 5.7 0 0 0-3.736-1.483c-2.2 0-3.571 1.428-3.626 2.912 0 4.066 8.516 2.912 8.516 8.516 0 2.527-1.978 4.615-5.164 4.615a7.34 7.34 0 0 1-5.384-2.2Zm26.976-14.065a8.642 8.642 0 0 1 8.681 8.736 8.791 8.791 0 0 1-8.681 8.9H86.9a8.791 8.791 0 0 1-8.681-8.9v-.055a8.642 8.642 0 0 1 8.736-8.681Zm-.055 16.1a7.142 7.142 0 0 0 6.978-7.3v-.06a6.953 6.953 0 1 0-13.9-.055 7.153 7.153 0 0 0 6.922 7.413Zm18.625-15.77h1.648l-.055 15.548h7.912v1.483h-9.615Zm18.625.055h1.648l-.055 17.087h-1.648Zm12.746 0h5.494c5.109 0 8.571 3.132 8.571 8.571s-3.461 8.516-8.571 8.516h-5.494Zm5.274 15.6c4.176 0 6.978-2.472 7.032-7.032s-2.8-7.032-6.977-7.032h-3.68l-.055 14.072Zm23.169 1.483a5.643 5.643 0 0 0 3.879-1.385 4.945 4.945 0 0 0 1.571-3.9v-11.59h-3.434v11.341a2.308 2.308 0 0 1-.549 1.648 1.983 1.983 0 0 1-1.522.588 2.5 2.5 0 0 1-2.357-1.9l-2.906 1.623a5.267 5.267 0 0 0 5.318 3.577Zm20.581.038a6.513 6.513 0 0 0 4.472-1.423 4.73 4.73 0 0 0 1.6-3.73 3.9 3.9 0 0 0-1.374-3.115 12.019 12.019 0 0 0-4.434-2.055 6.461 6.461 0 0 1-2.066-.863 1.412 1.412 0 0 1-.6-1.181 1.483 1.483 0 0 1 .6-1.236 2.527 2.527 0 0 1 1.6-.467 3.115 3.115 0 0 1 3.137 2.044l2.84-1.555a5.521 5.521 0 0 0-2.236-2.659 6.686 6.686 0 0 0-3.588-.939 6.1 6.1 0 0 0-4.093 1.428 4.456 4.456 0 0 0-1.7 3.6 4.121 4.121 0 0 0 1.275 3.082 9.741 9.741 0 0 0 4.049 2.027 9.071 9.071 0 0 1 2.483 1 1.28 1.28 0 0 1 .654 1.148 1.505 1.505 0 0 1-.709 1.269 3.1 3.1 0 0 1-1.813.5 3.846 3.846 0 0 1-3.626-2.324l-2.959 1.536a5.961 5.961 0 0 0 2.467 2.873 7.549 7.549 0 0 0 4.022 1.044Z" />
  </g>
</svg><path d="M401.4,72 h98.60000000000001 v28 h-98.60000000000001 q0,-28 28,-28 z" fill="#0E478C" filter="url(#blur)" /><path d="M426.31 90L426.31 82.17L427.92 82.17L427.92 88.46L431.27 88.46L431.27 90L426.31 90ZM432.85 82.17L434.47 82.17L434.47 90L432.85 90L432.85 82.17ZM442.89 87.84L442.89 87.84Q442.89 88.44 442.65 88.85Q442.41 89.26 442.01 89.52Q441.61 89.77 441.11 89.89Q440.61 90 440.10 90L440.10 90L436.80 90L436.80 82.17L440.05 82.17Q441.08 82.17 441.81 82.71L441.81 82.71Q442.55 83.25 442.55 84.24L442.55 84.24Q442.55 85.34 441.45 85.91L441.45 85.91L441.45 85.93Q442.18 86.20 442.53 86.64Q442.89 87.09 442.89 87.84ZM440.96 84.49L440.96 84.49Q440.96 84.04 440.63 83.85Q440.31 83.66 439.83 83.66L439.83 83.66L438.38 83.66L438.38 85.35L439.72 85.35Q440.96 85.35 440.96 84.49ZM441.31 87.63L441.31 87.63Q441.31 86.75 440.03 86.75L440.03 86.75L438.38 86.75L438.38 88.50L440.08 88.50Q441.31 88.50 441.31 87.63ZM448.99 86.94L450.76 90L448.96 90L447.34 87.19L446.36 87.19L446.36 90L444.74 90L444.74 82.17L447.83 82.17Q449.02 82.17 449.81 82.82L449.81 82.82Q450.60 83.46 450.60 84.65L450.60 84.65Q450.60 86.35 448.99 86.94L448.99 86.94ZM447.70 83.70L446.36 83.70L446.36 85.69L447.71 85.69Q448.22 85.69 448.59 85.44Q448.96 85.19 448.96 84.68L448.96 84.68Q448.96 84.16 448.59 83.93Q448.23 83.70 447.70 83.70L447.70 83.70ZM453.84 88.42L453.26 90L451.63 90L454.62 82.17L456.57 82.17L459.57 90L457.90 90L457.31 88.42L453.84 88.42ZM456.76 86.92L455.58 83.74L454.40 86.92L456.76 86.92ZM465.22 86.94L466.99 90L465.19 90L463.57 87.19L462.59 87.19L462.59 90L460.97 90L460.97 82.17L464.06 82.17Q465.25 82.17 466.04 82.82L466.04 82.82Q466.83 83.46 466.83 84.65L466.83 84.65Q466.83 86.35 465.22 86.94L465.22 86.94ZM463.93 83.70L462.59 83.70L462.59 85.69L463.94 85.69Q464.45 85.69 464.82 85.44Q465.19 85.19 465.19 84.68L465.19 84.68Q465.19 84.16 464.82 83.93Q464.46 83.70 463.93 83.70L463.93 83.70ZM472.50 90L470.88 90L470.88 86.90L468.01 82.17L469.88 82.17L471.69 85.30L473.52 82.17L475.37 82.17L472.50 86.83L472.50 90Z" fill="#fff"/></g></svg>